<?xml version="1.0"?>
<svg xmlns="http://www.w3.org/2000/svg" xmlns:xlink="http://www.w3.org/1999/xlink" version="1.1" id="Capa_1" x="0px" y="0px" viewBox="0 0 512 512" style="enable-background:new 0 0 512 512;" xml:space="preserve" width="512px" height="512px" class=""><g><g>
	<rect x="147.499" y="470.78" style="fill:#8DE0A8;" width="49" height="31.22" data-original="#8DE0A8"/>
	<rect x="315.499" y="470.78" style="fill:#8DE0A8;" width="49" height="31.22" data-original="#8DE0A8"/>
</g><path style="fill:#DC4B49;" d="M107.507,417v18.13c0,19.689,15.961,35.649,35.649,35.649h225.685  c19.689,0,35.65-15.961,35.65-35.649V417H107.507z" data-original="#DC4B49" class=""/><g>
	<rect x="107.509" y="181" style="fill:#FF6F52;" width="296.98" height="236" data-original="#FF6F52" class=""/>
	<path style="fill:#FF6F52;" d="M404.491,45.649c0-19.688-15.961-35.649-35.65-35.649H143.157   c-19.689,0-35.649,15.961-35.649,35.649V181h296.984V45.649H404.491z" data-original="#FF6F52" class=""/>
</g><path style="fill:#8DE0A8;" d="M243.856,98.509h-54.525h-12.405h-12.117c-9.56,0-17.31,7.75-17.31,17.31v12.694  c0,7.01,5.683,12.694,12.694,12.694h16.444c7.011,0,12.694-5.683,12.694-12.694l0,0h54.525V98.509z" data-original="#8DE0A8"/><path d="M176.637,151.206h-16.444c-12.514,0-22.694-10.181-22.694-22.694v-12.694c0-15.059,12.251-27.31,27.31-27.31h79.047  c5.523,0,10,4.477,10,10v30.003c0,5.523-4.477,10-10,10h-46.85C193.303,146.025,185.563,151.206,176.637,151.206z M164.809,108.509  c-4.03,0-7.31,3.279-7.31,7.31v12.694c0,1.485,1.208,2.694,2.694,2.694h16.444c1.485,0,2.694-1.208,2.694-2.694  c0-5.523,4.477-10,10-10l44.525-0.001v-10.003H164.809z" data-original="#000000" class="active-path" style="fill:#272727" data-old_color="#000000"/><path style="fill:#8DE0A8;" d="M246.344,224.651h-54.525h-12.405h-12.117c-9.56,0-17.31,7.75-17.31,17.31v12.694  c0,7.011,5.683,12.694,12.694,12.694h16.444c7.011,0,12.694-5.683,12.694-12.694l0,0h54.525V224.651z" data-original="#8DE0A8"/><path d="M179.125,277.349h-16.444c-12.514,0-22.694-10.18-22.694-22.694v-12.694c0-15.059,12.251-27.31,27.31-27.31h79.047  c5.523,0,10,4.477,10,10v30.003c0,5.523-4.477,10-10,10h-46.85C195.791,272.168,188.052,277.349,179.125,277.349z M167.297,234.651  c-4.03,0-7.31,3.279-7.31,7.31v12.694c0,1.485,1.208,2.694,2.694,2.694h16.444c1.485,0,2.694-1.208,2.694-2.694  c0-5.523,4.477-10,10-10h44.525v-10.003L167.297,234.651L167.297,234.651z" data-original="#000000" class="active-path" style="fill:#272727" data-old_color="#000000"/><path d="M368.309,386.57c-0.66,0-1.31-0.07-1.96-0.2c-0.64-0.12-1.27-0.32-1.87-0.57s-1.18-0.56-1.73-0.92  c-0.54-0.36-1.05-0.78-1.51-1.24c-0.47-0.46-0.88-0.97-1.25-1.52c-0.36-0.539-0.67-1.12-0.92-1.73c-0.25-0.6-0.44-1.23-0.57-1.87  c-0.13-0.64-0.19-1.3-0.19-1.95s0.06-1.31,0.19-1.95s0.32-1.27,0.57-1.87c0.25-0.61,0.56-1.19,0.92-1.73  c0.37-0.55,0.78-1.06,1.25-1.52c0.46-0.46,0.97-0.88,1.51-1.24c0.55-0.36,1.13-0.67,1.73-0.92s1.23-0.45,1.87-0.57  c1.29-0.26,2.62-0.26,3.91,0c0.64,0.12,1.27,0.32,1.87,0.57s1.18,0.56,1.73,0.92c0.54,0.36,1.06,0.78,1.52,1.24s0.88,0.97,1.24,1.52  c0.36,0.54,0.67,1.12,0.92,1.73c0.25,0.6,0.44,1.23,0.57,1.87c0.13,0.64,0.2,1.3,0.2,1.95c0,2.63-1.07,5.21-2.93,7.07  c-0.46,0.461-0.97,0.88-1.52,1.24s-1.13,0.67-1.73,0.92s-1.23,0.45-1.87,0.57C369.619,386.5,368.959,386.57,368.309,386.57z" data-original="#000000" class="active-path" style="fill:#272727" data-old_color="#000000"/><path d="M368.841,0H143.157c-25.171,0-45.649,20.478-45.649,45.649l0,0V435.13l0,0c0,23.254,17.482,42.489,39.992,45.286V502  c0,5.523,4.477,10,10,10h49c5.523,0,10-4.477,10-10v-21.221h99V502c0,5.523,4.477,10,10,10h49c5.523,0,10-4.477,10-10v-21.584  c22.509-2.797,39.992-22.032,39.992-45.286l0,0V45.649l0,0C414.491,20.478,394.013,0,368.841,0z M117.507,191h240.798v136.596  c0,5.523,4.477,10,10,10s10-4.477,10-10V191h16.185v216H117.507V191z M117.507,45.649c0-14.143,11.506-25.649,25.649-25.649h225.685  c14.143,0,25.649,11.506,25.649,25.649V171h-16.185V52.72c0-5.523-4.477-10-10-10s-10,4.477-10,10V171H117.507V45.649z M186.499,492  h-29v-11.221h29V492z M354.499,492h-29v-11.221h29V492z M394.491,435.13c0,14.143-11.506,25.649-25.649,25.649l0,0l0,0H143.157l0,0  l0,0c-14.143,0-25.649-11.506-25.649-25.649V427h276.983V435.13z" data-original="#000000" class="active-path" style="fill:#272727" data-old_color="#000000"/></g> </svg>
